<?xml version="1.0" encoding="utf-8"?>
<!-- Generator: Adobe Illustrator 27.5.0, SVG Export Plug-In . SVG Version: 6.00 Build 0)  -->
<svg version="1.1" xmlns="http://www.w3.org/2000/svg" xmlns:xlink="http://www.w3.org/1999/xlink" x="0px" y="0px"
	 viewBox="0 0 500 500" style="enable-background:new 0 0 500 500;" xml:space="preserve">
<g id="BACKGROUND">
	<rect style="fill:#f1f1f1;" width="500" height="500"/>
</g>
<g id="OBJECT">
	<g>
		<g>
			
				<ellipse transform="matrix(0.1602 -0.9871 0.9871 0.1602 124.1982 394.3018)" style="fill:#C6C6F7;" cx="293.822" cy="124.162" rx="9.725" ry="9.725"/>
			<path style="fill:#C6C6F7;" d="M272.824,114.437c0,2.973-2.41,5.383-5.383,5.383c-2.973,0-5.383-2.41-5.383-5.383
				s2.41-5.383,5.383-5.383C270.414,109.054,272.824,111.465,272.824,114.437z"/>
			<path style="fill:#C6C6F7;" d="M144.977,114.645c26.89-18.44,69.106-27.442,96.614,0.418
				c17.329,17.55,42.994,28.395,82.439,28.754c82.964,0.755,130.307,147.307,40.941,224.777
				c-64.594,55.995-236.467,48.007-272.614-83.342C70.295,205.082,99.317,145.956,144.977,114.645z"/>
			<circle style="fill:#C6C6F7;" cx="65.44" cy="294.75" r="10.453"/>
			<path style="fill:#C6C6F7;" d="M87.7,318.723c0,3.073-2.492,5.565-5.565,5.565c-3.073,0-5.565-2.492-5.565-5.565
				c0-3.073,2.492-5.565,5.565-5.565C85.208,313.158,87.7,315.65,87.7,318.723z"/>
		</g>
		
			<line style="fill:none;stroke:#2D2B82;stroke-width:0.5;stroke-linecap:round;stroke-linejoin:round;stroke-miterlimit:10;" x1="92.844" y1="402.305" x2="403.993" y2="402.305"/>
		<g>
			<path style="fill:#F9F9F9;" d="M367.174,283.782H129.702c-3.231,0-5.85-2.619-5.85-5.85V130.012c0-3.231,2.619-5.85,5.85-5.85
				h237.472c3.231,0,5.85,2.619,5.85,5.85v147.921C373.024,281.163,370.405,283.782,367.174,283.782z"/>
			<path style="fill:#8D8FFF;" d="M367.174,124.162H129.702c-3.231,0-5.85,2.619-5.85,5.85v16.136h249.171v-16.136
				C373.024,126.781,370.405,124.162,367.174,124.162z"/>
			<g>
				<path style="fill:#B256DF;" d="M174.234,182.435l-9.812-0.05c-0.334-0.002-0.634,0.201-0.758,0.51l-1.378,3.434
					c-0.124,0.31-0.425,0.512-0.758,0.51l-4.99-0.026c-0.584-0.003-0.974-0.602-0.741-1.137l10.272-23.59
					c0.13-0.298,0.424-0.49,0.749-0.488l5.701,0.029c0.327,0.002,0.622,0.2,0.747,0.502l9.795,23.693
					c0.222,0.537-0.174,1.126-0.755,1.123l-5.25-0.026c-0.336-0.002-0.636-0.21-0.755-0.523l-1.311-3.438
					C174.87,182.644,174.57,182.436,174.234,182.435z M172.452,176.276l-2.255-5.964c-0.262-0.694-1.241-0.702-1.515-0.013
					l-2.363,5.94c-0.212,0.532,0.178,1.11,0.751,1.113l4.618,0.024C172.257,177.379,172.653,176.809,172.452,176.276z"/>
				<path style="fill:#B256DF;" d="M194.939,174.703l-0.013,2.483c-0.002,0.449-0.368,0.811-0.817,0.808l-7.926-0.041
					c-0.449-0.002-0.811-0.368-0.809-0.817l0.013-2.483c0.002-0.449,0.368-0.811,0.817-0.808l7.926,0.041
					C194.579,173.889,194.941,174.254,194.939,174.703z"/>
				<path style="fill:#B256DF;" d="M220.121,162.684l-0.017,3.214c-0.001,0.193-0.071,0.38-0.197,0.526l-12.071,14.014
					c-0.452,0.525-0.082,1.34,0.611,1.343l10.979,0.056c0.449,0.002,0.811,0.368,0.809,0.817l-0.019,3.674
					c-0.002,0.449-0.368,0.811-0.817,0.808l-20.758-0.106c-0.449-0.002-0.811-0.368-0.809-0.817l0.016-3.178
					c0.001-0.193,0.07-0.379,0.196-0.525l12.075-14.051c0.452-0.525,0.081-1.339-0.612-1.342l-10.297-0.052
					c-0.449-0.002-0.811-0.368-0.809-0.817l0.019-3.674c0.002-0.449,0.368-0.811,0.817-0.808l20.073,0.103
					C219.761,161.869,220.123,162.235,220.121,162.684z"/>
			</g>
			<path style="fill:#FFFFFF;" d="M139.522,134.662c0,1.336-1.083,2.419-2.419,2.419c-1.336,0-2.419-1.083-2.419-2.419
				c0-1.336,1.083-2.419,2.419-2.419C138.439,132.244,139.522,133.327,139.522,134.662z"/>
			<path style="fill:#FFFFFF;" d="M149.997,134.662c0,1.336-1.083,2.419-2.419,2.419c-1.336,0-2.419-1.083-2.419-2.419
				c0-1.336,1.083-2.419,2.419-2.419C148.914,132.244,149.997,133.327,149.997,134.662z"/>
			<path style="fill:#FFFFFF;" d="M160.617,134.662c0,1.336-1.083,2.419-2.419,2.419c-1.336,0-2.419-1.083-2.419-2.419
				c0-1.336,1.083-2.419,2.419-2.419C159.534,132.244,160.617,133.327,160.617,134.662z"/>
			
				<line style="fill:none;stroke:#4949A5;stroke-width:0.5;stroke-linecap:round;stroke-linejoin:round;stroke-miterlimit:10;" x1="248.438" y1="181.088" x2="305.829" y2="181.088"/>
			
				<line style="fill:none;stroke:#4949A5;stroke-width:0.5;stroke-linecap:round;stroke-linejoin:round;stroke-miterlimit:10;" x1="149.997" y1="211.243" x2="293.822" y2="211.243"/>
			
				<line style="fill:none;stroke:#4949A5;stroke-width:0.5;stroke-linecap:round;stroke-linejoin:round;stroke-miterlimit:10;" x1="149.997" y1="227.476" x2="320.19" y2="227.476"/>
			
				<line style="fill:none;stroke:#4949A5;stroke-width:0.5;stroke-linecap:round;stroke-linejoin:round;stroke-miterlimit:10;" x1="149.997" y1="243.708" x2="293.822" y2="243.708"/>
			<path style="opacity:0.1;fill:#7077EF;" d="M214.59,283.782h152.584c3.231,0,5.85-2.619,5.85-5.85V130.012
				c0-3.231-2.619-5.85-5.85-5.85h-24.525C345.851,159.265,339.22,242.837,214.59,283.782z"/>
		</g>
		<g>
			<path style="fill:#8D8FFF;" d="M128.72,371.803c0.972,0.759,2.379,0.005,2.249-1.221c-0.701-6.587-2.64-22.052-5.995-28.798
				c-2.937-5.932-7.41-11.311-9.981-14.155c-0.803-0.888-2.278-0.403-2.399,0.788C111.801,336.278,111.363,358.253,128.72,371.803z"
				/>
			<path style="fill:none;stroke:#464AA5;stroke-width:0.5;stroke-linecap:round;stroke-miterlimit:10;" d="M117.652,335.004
				c0,0,15.335,39.798,15.83,48.755"/>
			<path style="fill:#6F75EF;" d="M144.639,369.924c-1.008,0.666-2.331-0.206-2.125-1.396c1.249-7.218,4.734-25.471,9.208-33.135
				c3.969-6.831,9.791-12.861,12.893-15.834c0.864-0.828,2.29-0.248,2.34,0.947C167.322,329.237,166.469,355.505,144.639,369.924z"
				/>
			<path style="fill:none;stroke:#464AA5;stroke-width:0.5;stroke-linecap:round;stroke-miterlimit:10;" d="M160.689,328.135
				c0,0-20.709,44.56-22.003,54.822"/>
			<path style="fill:#8D8FFF;" d="M139.686,365.931c-0.751,0.885-2.202,0.495-2.416-0.646c-1.176-6.271-3.728-22.259-1.911-34.793
				c1.943-13.365,7.673-25.423,11.51-30.385c0.736-0.952,2.244-0.609,2.466,0.573C151.18,310.55,156.406,346.223,139.686,365.931z"
				/>
			<path style="fill:none;stroke:#464AA5;stroke-width:0.5;stroke-linecap:round;stroke-miterlimit:10;" d="M145.019,313.158
				c-0.277,0.74-8.69,53.528-7.396,66.979"/>
			<path style="fill:#1818A0;" d="M147.894,378.751h-24.84c-0.889,0-1.609,0.72-1.609,1.609v2.375c0,0.889,0.72,1.609,1.609,1.609
				h24.84c0.889,0,1.609-0.72,1.609-1.609v-2.375C149.503,379.471,148.782,378.751,147.894,378.751z"/>
			<path style="fill:#1818A0;" d="M125.872,402.738l19.613-0.04c0.891-0.002,1.61-0.727,1.606-1.617l-0.085-17.015h-22.789
				l0.042,17.066C124.262,402.022,124.984,402.74,125.872,402.738z"/>
			
				<line style="fill:none;stroke:#FFFFFF;stroke-width:0.5;stroke-linecap:round;stroke-miterlimit:10;" x1="146.96" y1="384.39" x2="126.437" y2="384.39"/>
		</g>
		<g>
			<path style="fill:#FFA0A4;" d="M182.154,223.722l-2.764,14.96c0,0,1.495,2.07,2.675,5.5c2.869,8.336,12.243,15.943,14.434,22.955
				c-0.145-0.415,11.465-7.948,11.233-15.548c-4.821-12.756-9.213-24.328-11.789-27.079c-2.576-2.751-9.736-5.429-9.736-5.429"/>
			<g>
				
					<rect x="190.592" y="213.984" transform="matrix(0.9058 0.4238 -0.4238 0.9058 110.6366 -60.6366)" style="fill:#473DD7;" width="2.119" height="8.9"/>
				<path style="fill:#473DD7;" d="M180.516,242.234L180.516,242.234c-2.279-1.066-3.262-3.779-2.196-6.058l6.915-14.779
					c1.066-2.279,3.778-3.262,6.057-2.196v0c2.279,1.066,3.262,3.778,2.196,6.057l-6.915,14.779
					C185.507,242.317,182.794,243.3,180.516,242.234z"/>
				<path style="fill:#473DD7;" d="M208.698,182.003c-9.271-4.338-20.304-0.339-24.643,8.932
					c-4.338,9.271-0.339,20.304,8.932,24.642c9.271,4.338,20.304,0.339,24.642-8.933
					C221.969,197.374,217.97,186.341,208.698,182.003z M214.539,205.272c-3.547,7.58-12.566,10.849-20.146,7.303
					c-7.58-3.547-10.849-12.567-7.303-20.146c3.547-7.58,12.567-10.849,20.146-7.303
					C214.817,188.673,218.086,197.693,214.539,205.272z"/>
			</g>
			<path style="fill:#FFA0A4;stroke:#EF8A66;stroke-width:0.5;stroke-miterlimit:10;" d="M196.382,224.711
				c-2.576-2.751-9.736-5.429-9.736-5.429l-0.439-0.201c-2.509-0.878-2.668,3.294-0.452,4.834c2.215,1.54,3.613,1.798,3.957,2.789
				c0.344,0.99,1.074,4.127,1.074,4.127s-2.235,6.252,1.482,12.135"/>
			
				<line style="fill:none;stroke:#EF8A66;stroke-width:0.5;stroke-linecap:round;stroke-linejoin:round;stroke-miterlimit:10;" x1="182.154" y1="223.722" x2="179.391" y2="238.683"/>
			<path style="fill:none;stroke:#EF8A66;stroke-width:0.5;stroke-linecap:round;stroke-linejoin:round;stroke-miterlimit:10;" d="
				M196.382,224.711c-2.576-2.751-9.736-5.429-9.736-5.429l-0.439-0.201c-2.509-0.878-2.668,3.294-0.452,4.834
				c2.215,1.54,3.613,1.798,3.957,2.789c0.344,0.99,1.074,4.127,1.074,4.127s-2.235,6.252,1.482,12.135"/>
			<path style="fill:#FFA0A4;stroke:#EF8A66;stroke-width:0.5;stroke-miterlimit:10;" d="M175.446,233.006
				c3.011-2.563,8.65,6.234,5.528,8.806C178.74,243.652,172.586,235.44,175.446,233.006z"/>
			<path style="fill:#FFA0A4;stroke:#EF8A66;stroke-width:0.5;stroke-miterlimit:10;" d="M177.579,227.781
				c3.011-2.563,9.985,8.4,6.863,10.972C182.208,240.593,174.719,230.215,177.579,227.781z"/>
			<path style="fill:#FFA0A4;stroke:#EF8A66;stroke-width:0.5;stroke-miterlimit:10;" d="M180.148,224.051
				c3.011-2.563,9.985,8.4,6.863,10.972C184.777,236.864,177.288,226.486,180.148,224.051z"/>
			<g>
				<path style="fill:#9D46D1;" d="M257.508,305.4c-15.014-20.06-34.027-39.643-36.724-42.381c-2.697-2.738-5.533-2.754-5.533-2.754
					l-6.778-11.095c0,0-6.586,10.631-17.829,16.587l6.179,10.883c0,0-1.721,1.409,2.466,9.442
					c4.187,8.033,20.361,38.687,28.197,44.612C246.228,344.864,277.245,331.768,257.508,305.4z"/>
				
					<line style="opacity:0.5;fill:none;stroke:#EEF7FF;stroke-width:0.5;stroke-linecap:round;stroke-linejoin:round;stroke-miterlimit:10;" x1="205.867" y1="269.992" x2="199.053" y2="259.902"/>
				
					<line style="opacity:0.5;fill:none;stroke:#EEF7FF;stroke-width:0.5;stroke-linecap:round;stroke-linejoin:round;stroke-miterlimit:10;" x1="202.117" y1="272.699" x2="195.423" y2="262.779"/>
				
					<line style="opacity:0.5;fill:none;stroke:#EEF7FF;stroke-width:0.5;stroke-linecap:round;stroke-linejoin:round;stroke-miterlimit:10;" x1="205.731" y1="252.929" x2="212.919" y2="263.579"/>
				
					<line style="opacity:0.5;fill:none;stroke:#EEF7FF;stroke-width:0.5;stroke-linecap:round;stroke-linejoin:round;stroke-miterlimit:10;" x1="202.457" y1="256.488" x2="209.645" y2="267.137"/>
			</g>
			<g>
				<g>
					<path style="fill:#9D46D1;" d="M383.195,308.199c-1.267,20.808-5.617,53.158-8.579,73.762
						c-1.681,11.61-2.918,19.496-2.918,19.496s-50.459,1.96-64.172,1.613c-13.706-0.347-15.206-1.387-15.206-6.913
						c0-5.534,0.234-74.546,0.234-74.546s-45.024,21.424-54.764,13.319c-9.756-8.12-22.912-41.191,2.148-35.71
						c6.303,1.38,69.473-25.407,75.867-23.997c19.044,4.207,10.221-3.59,10.221-3.59c27.465,3.92,34.412,5.841,46.158,13.561
						C373.893,286.316,383.858,297.215,383.195,308.199z"/>
					<g>
						<path style="fill:#FFFFFF;" d="M319.991,271.632c-3.041,0.585-6.432,1.626-8.133,4.51c-1.701,2.883-1.774,15.083-0.222,16.413
							c1.553,1.33,3.631-5.028,12.905-8.133L319.991,271.632z"/>
						<path style="fill:#FFFFFF;" d="M332.337,285.014l9.467-14.934c0,0,5.024,2.662,5.837,7.467
							c0.813,4.806-1.388,20.556-5.397,16.561C339.438,291.311,340.073,289.006,332.337,285.014z"/>
					</g>
				</g>
			</g>
			<path style="fill:none;stroke:#83ADDF;stroke-width:0.5;stroke-linecap:round;stroke-linejoin:round;stroke-miterlimit:10;" d="
				M369.414,367.961c-0.038-0.158-0.083-0.324-0.121-0.49c-3.613-14.52-6.616-29.719-7.878-42.975"/>
			<g id="upper_hand">
				<g>
					<path style="fill:#9D46D1;" d="M412.45,383.14l-1.934-0.601c0.176,1.78,0.26,3.385,0.25,4.792c0,0.08,0,0.16-0.008,0.24
						c-0.015,0.321,1.349,1.369,1.289,1.694c-1.301,6.896-14.369,13.641-26.413,7.77c-1.016-0.495-2.033-1.077-3.046-1.78
						c-3.425-2.335-6.817-5.847-9.934-10.855c-2.376-3.816-4.6-8.509-6.571-14.208c-0.053-0.163-0.115-0.332-0.169-0.503
						c-6.721-19.872-12.482-41.113-14-57.453c-1.836-19.696,2.492-32.285,18.729-26.844c5.615,1.88,12.305,12.379,18.594,26.167
						c5.074,11.116,9.896,24.363,13.678,36.951C406.861,361.626,411.622,374.641,412.45,383.14z"/>
				</g>
			</g>
			<path style="fill:#FFA0A4;" d="M344.484,274.786c0,0-3.444,9.807-14.875,11.179c-11.425,1.383-15.109-4.538-14.412-9.279
				c0.048-0.334,0.096-0.669,0.155-1.01c0.836-5.265,2.184-11.085,3.626-21.534c0.223-1.637,0.765-3.411,1.545-5.179
				c4.445-10.239,23.823-21.527,22.743-2.689C342.691,256.319,344.484,274.786,344.484,274.786z"/>
			<path style="fill:#F48C93;" d="M315.352,275.676c0.836-5.265,2.184-11.085,3.626-21.534c0.223-1.637,0.765-3.411,1.545-5.179
				c5.723,1.642,12.589,5.695,11.929,11.279C331.466,268.581,327.712,277.482,315.352,275.676z"/>
			<g>
				<path style="fill:#FFA0A4;" d="M315.226,262.023c10.481,2.833,26.717-2.089,37.223-14.144
					c11.504-13.201,4.712-22.697,3.77-28.972c-0.942-6.275-6.703-20.482-23.082-14.946c-14.655,4.928-16.655-0.156-24.333,25.766
					c-0.659,2.225-1.6,9.285-2.051,14.471C305.634,257.067,308.975,260.334,315.226,262.023z"/>
			</g>
			<path style="fill:#372834;" d="M318.342,227.164c-0.167,1.172-0.821,2.049-1.459,1.957c-0.638-0.091-1.02-1.115-0.853-2.288
				c0.167-1.172,0.82-2.048,1.459-1.957C318.127,224.968,318.509,225.992,318.342,227.164z"/>
			<path style="fill:#F48C93;" d="M329.889,241.016c0.151,3.482,3.097,6.182,6.579,6.031c3.482-0.151,6.182-3.097,6.031-6.579
				c-0.151-3.482-3.097-6.182-6.579-6.031C332.438,234.588,329.737,237.534,329.889,241.016z"/>
			<path style="fill:none;stroke:#B75864;stroke-width:0.5;stroke-linecap:round;stroke-linejoin:round;stroke-miterlimit:10;" d="
				M319.99,230.829c0,0-4.309,5.917-4.329,7.53c-0.02,1.612,3.971,0.723,3.971,0.723"/>
			<path style="fill:none;stroke:#B75864;stroke-width:0.5;stroke-linecap:round;stroke-linejoin:round;stroke-miterlimit:10;" d="
				M325.935,243.28c0,0-1.479,5.884-6.337,2.424"/>
			<path style="fill:#F48C93;" d="M308.802,229.727c0.073-0.246,0.142-0.47,0.213-0.71c2.476,0.765,4.33,2.997,4.449,5.734
				c0.151,3.482-2.549,6.428-6.031,6.579c-0.136,0.006-0.269,0-0.403-0.003C307.525,236.679,308.259,231.561,308.802,229.727z"/>
			<path style="fill:#372834;" d="M320.565,221.852c0,0,0.651-0.208-0.145-0.971c-0.795-0.764-3.118-2.085-5.366-1.082
				c0,0-0.79,0.388,0.161,0.934C315.74,221.034,318.728,222.299,320.565,221.852z"/>
			<path style="fill:#372834;" d="M326.316,223.499c0,0-0.442-0.52,0.637-0.747c1.079-0.227,3.749-0.119,5.126,1.922
				c0,0,0.465,0.747-0.631,0.707C330.842,225.359,327.638,224.85,326.316,223.499z"/>
			<g>
				<g>
					<g>
						<g>
							<g>
								<path style="fill:#372834;" d="M310.932,215.047l-0.873,3.901c-1.342,4.121-2.546,6.641-1.257,10.779
									c0,0,3.093-10.804,6.6-17.563c14.063-7.072,14.806-0.509,21.594,1.61c2.882,0.9,6.73,1.489,11.715,6.182
									c0,0-1.748-1.391-2.971,1.684c-3.38,8.531-1.624,19.105,2.326,24.618c0.399,0.557,0.343,1.339,0.864,1.733
									c1.775,1.342,3.052-0.946,4.584-1.77c1.134-0.61,2.833,0.901,4.284,1.307c1.518-2.155,11.639-11.038,11.878-24.799
									c0.136-7.848-0.456-17.039-6.174-19.827c-5.253-8.67-13.519-8.036-16.32-9.496c-4.356-2.269-11.138-2.564-16.041-1.899
									c-3.79,0.514-8.939,1.457-13.201,6.306C310.348,206.454,311.766,210.849,310.932,215.047z"/>
							</g>
						</g>
					</g>
				</g>
			</g>
			<path style="fill:#372834;" d="M312.947,205.699c0,0-0.583,5.471,3.293,7.076c3.876,1.605,8.981-0.285,8.981-0.285
				s14.621,15.51,29.955,11.027c12.304-3.597-13.212-20.907-13.212-20.907l-16.676-3.536
				C320.109,197.976,314.894,200.776,312.947,205.699L312.947,205.699z"/>
			<path style="fill:#FFA0A4;" d="M345.46,242.598c1.358-6.625,11.834-10.57,13.687-1.369c1.604,7.965-5.904,8.95-9.877,8.851
				L345.46,242.598z"/>
			<path style="fill:none;stroke:#DD7A81;stroke-width:0.5;stroke-linecap:round;stroke-linejoin:round;stroke-miterlimit:10;" d="
				M347.979,244.117c0,0,3.457-7.976,9.027-2.66"/>
			<path style="fill:none;stroke:#DD7A81;stroke-width:0.5;stroke-linecap:round;stroke-linejoin:round;stroke-miterlimit:10;" d="
				M353.79,244.888c0,0,1.749-3.514-0.749-5.453"/>
			<path style="fill:#372834;" d="M328.176,229.98c-0.167,1.172-0.821,2.049-1.459,1.957c-0.638-0.091-1.02-1.115-0.853-2.288
				c0.167-1.172,0.821-2.048,1.459-1.957C327.962,227.784,328.344,228.808,328.176,229.98z"/>
			<polygon style="fill:#6C27A8;" points="292.553,321.611 297.114,317.555 292.553,366.137 			"/>
			<path style="fill:#6C27A8;" d="M353.7,327.032c0,0,4.372,39.438,1.946,47.228l10.653-3.449
				C366.298,370.81,357.388,353.44,353.7,327.032z"/>
			<g id="hand">
				<path style="fill:#FFA0A4;" d="M324.126,384.056c-1.296-0.77-14.721-5.397-16.959-5.536c-2.239-0.14-6.996,3.148-6.996,3.148
					s-9.445,0.56-10.494,2.239c-1.049,1.679,1.075,4.058,2.706,4.897c1.631,0.84,0.092,2.589,0.302,3.988
					c0.21,1.399,1.959,2.379,2.169,3.358c0.21,0.98-0.7,3.601,1.469,4.249c2.169,0.648,0.77,1.977,1.889,3.866
					c1.119,1.889,11.822,1.237,28.823-2.121L324.126,384.056z"/>
				<path style="fill:none;stroke:#EF8A66;stroke-width:0.5;stroke-linecap:round;stroke-linejoin:round;stroke-miterlimit:10;" d="
					M307.166,378.519c-2.239-0.14-6.996,3.148-6.996,3.148s-9.445,0.56-10.494,2.239c-1.049,1.679,1.075,4.058,2.706,4.897
					c1.631,0.84,0.092,2.589,0.302,3.988c0.21,1.399,1.959,2.379,2.169,3.358c0.21,0.98-0.7,3.601,1.469,4.249
					c2.169,0.648,0.77,1.977,1.889,3.866c0.44,0.743,1.736,1.14,4.181,1.143"/>
				<path style="fill:#9D46D1;" d="M412.251,388.362c-0.06,0.302-0.128,0.611-0.204,0.905c-1.9,7.479-9.906,12.311-31.853,13.842
					c-1.915,0.136-3.815,0.256-5.692,0.369c-26.032,1.546-48.936-0.366-48.936-0.366l-2.589-20.301
					c11.799-3.498,30.722-7.832,46.436-12.752c6.201-1.941,12.01-4.156,16.111-3.854c5.059,0.377,9.793,1.033,13.834,2.269
					c1.229,0.369,2.397,0.799,3.491,1.289c5.285,2.36,8.828,6.159,9.499,12.296c0.053,0.513,0.098,1.018,0.136,1.508v0.023
					C412.582,385.278,412.522,386.869,412.251,388.362z"/>
				
					<path style="opacity:0.5;fill:none;stroke:#EEF7FF;stroke-width:0.5;stroke-linecap:round;stroke-linejoin:round;stroke-miterlimit:10;" d="
					M386.047,367.961c-4.101-0.302-9.192,0.544-15.555,1.863c-10.774,2.232-21.344,7.125-31.991,10.918
					c0,0-11.963,1.012-15.524,2.068l2.589,20.301"/>
				
					<line style="opacity:0.5;fill:none;stroke:#EEF7FF;stroke-width:0.5;stroke-linecap:round;stroke-linejoin:round;stroke-miterlimit:10;" x1="323.628" y1="384.624" x2="332.344" y2="383.699"/>
				
					<line style="opacity:0.5;fill:none;stroke:#EEF7FF;stroke-width:0.5;stroke-linecap:round;stroke-linejoin:round;stroke-miterlimit:10;" x1="323.628" y1="388.531" x2="335.068" y2="387.104"/>
				
					<line style="opacity:0.5;fill:none;stroke:#EEF7FF;stroke-width:0.5;stroke-linecap:round;stroke-linejoin:round;stroke-miterlimit:10;" x1="324.126" y1="391.961" x2="334.461" y2="391.171"/>
				
					<line style="opacity:0.5;fill:none;stroke:#EEF7FF;stroke-width:0.5;stroke-linecap:round;stroke-linejoin:round;stroke-miterlimit:10;" x1="324.858" y1="397.005" x2="335.068" y2="396.216"/>
				
					<line style="opacity:0.5;fill:none;stroke:#EEF7FF;stroke-width:0.5;stroke-linecap:round;stroke-linejoin:round;stroke-miterlimit:10;" x1="325.566" y1="401.113" x2="333.483" y2="400.499"/>
				<path style="fill:none;stroke:#EF8A66;stroke-width:0.5;stroke-linecap:round;stroke-linejoin:round;stroke-miterlimit:10;" d="
					M300.17,381.667c3.428-0.35,6.506-0.49,6.506-0.49"/>
			</g>
			
				<path style="opacity:0.5;fill:none;stroke:#EEF7FF;stroke-width:0.5;stroke-linecap:round;stroke-linejoin:round;stroke-miterlimit:10;" d="
				M366.298,370.81c-9.303-18.803-12.867-42.234-14.385-58.574"/>
			<g>
				<path style="fill:#FFFFFF;" d="M292.068,408.141l47.627-0.262c1.635-0.009,2.952-1.341,2.943-2.976l-0.004-0.754
					c-0.009-1.635-1.342-2.952-2.976-2.943l-47.627,0.262c-1.635,0.009-2.952,1.341-2.943,2.976l0.004,0.755
					C289.101,406.832,290.434,408.15,292.068,408.141z"/>
				<path style="fill:#E9EAFF;" d="M202.467,340.988l5.957,62.771c0.143,1.502,2.497,2.752,5.287,2.806l79.825,1.564
					c2.845,0.056,5.058-1.151,4.92-2.683l-5.841-64.701c-0.14-1.553-2.639-2.828-5.517-2.815l-79.942,0.366
					C204.404,338.309,202.326,339.501,202.467,340.988z"/>
				
					<path style="fill:#F9F9F9;stroke:#DDDDDD;stroke-width:0.5;stroke-linecap:round;stroke-linejoin:round;stroke-miterlimit:10;" d="
					M255.888,373.04c-0.215,3.934-3.755,6.94-7.906,6.713c-4.152-0.227-7.343-3.6-7.128-7.534c0.215-3.934,3.755-6.94,7.906-6.713
					C252.911,365.733,256.103,369.106,255.888,373.04z"/>
			</g>
		</g>
		<g>
			<path style="fill:#FFFFFF;" d="M422.542,170.106c1.205-0.658,3.647-1.131,3.456-4.396c-0.025-0.431,0.674-0.483,0.882-0.104
				c0.684,1.25,1.348,3.611,4.267,4.143c0.365,0.067,0.438,0.721,0.083,0.828c-2.587,0.782-2.925,2.32-3.579,4.2
				c-0.139,0.399-0.675,0.46-0.877,0.089c-0.722-1.327-0.757-3.197-4.144-3.883C422.212,170.899,422.169,170.31,422.542,170.106z"/>
			<path style="fill:#FFFFFF;" d="M80.315,182.597c2.408-1.315,7.288-2.26,6.905-8.784c-0.051-0.862,1.347-0.965,1.761-0.207
				c1.367,2.498,2.694,7.215,8.525,8.279c0.729,0.133,0.875,1.44,0.166,1.654c-5.169,1.562-5.845,4.636-7.15,8.392
				c-0.277,0.797-1.349,0.92-1.752,0.178c-1.442-2.652-1.513-6.387-8.281-7.759C79.657,184.181,79.57,183.004,80.315,182.597z"/>
			<path style="fill:#FFFFFF;" d="M241.276,88.671c0,2.657-2.154,4.812-4.812,4.812c-2.657,0-4.812-2.154-4.812-4.812
				c0-2.658,2.154-4.812,4.812-4.812C239.122,83.859,241.276,86.013,241.276,88.671z"/>
			<path style="fill:#FFFFFF;" d="M104.744,282.546c0,1.322-1.072,2.393-2.394,2.393s-2.394-1.072-2.394-2.393
				s1.072-2.394,2.394-2.394S104.744,281.224,104.744,282.546z"/>
		</g>
		<g>
			<g>
				
					<ellipse transform="matrix(0.7071 -0.7071 0.7071 0.7071 -37.4192 364.6134)" style="fill:#5757EA;" cx="421.418" cy="227.476" rx="23.595" ry="23.595"/>
				<path style="fill:#5757EA;" d="M399.783,233.76l-7.239,11.922c-0.53,0.873,0.233,1.96,1.234,1.758l14.251-2.874L399.783,233.76z
					"/>
				<g>
					<g>
						<g>
							<path style="fill:#FFFFFF;" d="M416.516,222.73h0.382c0.696,0,1.324-0.429,1.557-1.085c0.305-0.857,1.052-1.916,2.886-1.947
								c1.608-0.028,2.441,1.025,2.78,1.832c0.393,0.937,0.274,2.005-0.253,2.873c-0.459,0.757-1.336,1.462-2.789,1.566
								c-0.86,0.061-1.522,0.79-1.522,1.653v4.591c0,0.918,0.744,1.663,1.663,1.663h0.183c0.918,0,1.663-0.744,1.663-1.663v-2.832
								c0-0.112,0.068-0.209,0.174-0.244c0.875-0.288,4.746-1.832,4.746-6.641c0-5.188-4.652-6.393-6.644-6.393
								c-1.337,0-5.501,0.284-6.45,4.592C414.661,221.736,415.449,222.73,416.516,222.73z"/>
						</g>
					</g>
					<g>
						<g>
							<path style="fill:#FFFFFF;" d="M421.444,238.848h-0.235c-0.918,0-1.663-0.744-1.663-1.663l0,0
								c0-0.918,0.744-1.663,1.663-1.663h0.235c0.918,0,1.663,0.744,1.663,1.663l0,0
								C423.107,238.104,422.363,238.848,421.444,238.848z"/>
						</g>
					</g>
				</g>
			</g>
			<g>
				<path style="fill:#B256DF;" d="M409.227,160.404h-52.001c-4.789,0-8.672-3.883-8.672-8.672v-45.151
					c0-4.789,3.883-8.672,8.672-8.672h52.001c4.789,0,8.672,3.883,8.672,8.672v45.151
					C417.899,156.522,414.016,160.404,409.227,160.404z"/>
				<g>
					<g>
						<path style="fill:#FFC96C;" d="M392.411,139.399c4.529-5.396,9.154-9.443,8.19-18.693
							c-1.076-10.329-9.259-14.661-15.754-15.33c-0.389-0.04-0.779-0.059-1.17-0.062l0,0c-0.471,0-0.791,0.01-1.26,0.061
							c-6.477,0.706-14.246,5.061-15.316,15.332c-0.964,9.25,3.661,13.297,8.19,18.693c4.174,4.973,3.683,9.616,3.58,10.313
							c0.357-0.235,3.362-0.164,4.674-0.121v0.022c0,0,0.114-0.005,0.305-0.012c0.191,0.007,0.305,0.012,0.305,0.012v-0.022
							c1.313-0.043,4.317-0.114,4.674,0.121C388.729,149.015,388.237,144.372,392.411,139.399z"/>
					</g>
					<path style="opacity:0.5;fill:#FFFFFF;" d="M374.431,114.923c-1.24,2.148-2.772,3.585-3.421,3.21
						c-0.649-0.375-0.17-2.42,1.07-4.568c1.24-2.148,2.772-3.585,3.421-3.21C376.15,110.73,375.671,112.776,374.431,114.923z"/>
					<path style="opacity:0.5;fill:#FFFFFF;" d="M370.843,122.064c-0.129,1.103-0.611,1.954-1.078,1.899
						c-0.467-0.055-0.741-0.993-0.612-2.097c0.129-1.104,0.612-1.954,1.078-1.899C370.698,120.022,370.972,120.96,370.843,122.064z"
						/>
					<path style="fill:none;stroke:#FFFFFF;stroke-width:0.6047;stroke-linecap:round;stroke-miterlimit:10;" d="M382.054,146.929
						V135.77c0-1.772-0.513-3.517-1.532-4.967c-0.846-1.203-2.07-2.371-3.63-2.05c-2.693,0.555-0.287,4.158,5.951,4.158
						s8.421-3.107,7.47-4.312c-0.598-0.757-4.817-0.778-5.032,5.1c-0.215,5.879,0,13.404,0,13.404"/>
					<path style="opacity:0.4;fill:#FD8F00;" d="M396.962,111.625c-1.585,9.612-6.069,26.04-18.548,33.468
						c0.708,2.417,0.519,4.208,0.459,4.619c0.357-0.235,3.362-0.164,4.674-0.121v0.022c0,0,0.114-0.005,0.305-0.012
						c0.191,0.007,0.305,0.012,0.305,0.012v-0.022c1.313-0.043,4.317-0.114,4.674,0.121c-0.103-0.697-0.594-5.339,3.58-10.313
						c4.529-5.396,9.154-9.443,8.19-18.693C400.205,116.905,398.845,113.918,396.962,111.625z"/>
					<path style="fill:#8D8FFF;" d="M388.332,148.853h-9.004c-0.511,0-0.929-0.418-0.929-0.929v-0.458
						c0-0.511,0.418-0.929,0.929-0.929h9.004c0.511,0,0.929,0.418,0.929,0.929v0.458
						C389.261,148.435,388.843,148.853,388.332,148.853z"/>
					<path style="fill:#8D8FFF;" d="M388.332,151.114h-9.004c-0.511,0-0.929-0.418-0.929-0.929v-0.458
						c0-0.511,0.418-0.929,0.929-0.929h9.004c0.511,0,0.929,0.418,0.929,0.929v0.458
						C389.261,150.696,388.843,151.114,388.332,151.114z"/>
					<path style="fill:#8D8FFF;" d="M388.332,153.344h-9.004c-0.511,0-0.929-0.418-0.929-0.929v-0.458
						c0-0.511,0.418-0.929,0.929-0.929h9.004c0.511,0,0.929,0.418,0.929,0.929v0.458
						C389.261,152.926,388.843,153.344,388.332,153.344z"/>
					
						<line style="fill:none;stroke:#FFFFFF;stroke-width:0.6047;stroke-linecap:round;stroke-miterlimit:10;" x1="379.328" y1="148.798" x2="386.947" y2="148.798"/>
					
						<line style="fill:none;stroke:#FFFFFF;stroke-width:0.6047;stroke-linecap:round;stroke-miterlimit:10;" x1="379.998" y1="151.115" x2="388.506" y2="151.115"/>
				</g>
			</g>
			<g>
				<path style="fill:#5757EA;" d="M127.818,256.381H77.348c-3.732,0-6.758-3.026-6.758-6.758v-27.613
					c0-3.732,3.026-6.758,6.758-6.758h50.471c3.732,0,6.758,3.025,6.758,6.758v27.613
					C134.576,253.356,131.55,256.381,127.818,256.381z"/>
				
					<polyline style="fill:none;stroke:#FFFFFF;stroke-width:2;stroke-linecap:round;stroke-linejoin:round;stroke-miterlimit:10;" points="
					88.478,235.871 95.241,244.69 116.744,226.125 				"/>
			</g>
		</g>
	</g>
</g>
</svg>
